# xmcd
#
# Track frame offsets:
#	150
#	14711
#	33667
#	42980
#	53985
#	65312
#	74260
#	87494
#	98727
#	110942
#	122113
#
# Disc length: 1758 seconds
#
# Revision: 0
# Processed by: cddbd v1.5.1PL0 Copyright (c) Steve Scherf et al.
# Submitted via: audiograbber 1.83.01
#
DISCID=a206dc0b
DTITLE=Tammy Wynette - D-I-V-O-R-C-E
DYEAR=1900
DGENRE=
TTITLE0=Gentle On My Mind
TTITLE1=Honey (I Miss You)
TTITLE2=The Legend Of Bonnie And Clyde
TTITLE3=All Night Long
TTITLE4=Sweet Dreams
TTITLE5=Yesterday
TTITLE6=D-I-V-O-R-C-E
TTITLE7=Come On Home
TTITLE8=When There's Fire In Your Heart
TTITLE9=Kiss Away
TTITLE10=Lonely Street
EXTD=
EXTT0=
EXTT1=
EXTT2=
EXTT3=
EXTT4=
EXTT5=
EXTT6=
EXTT7=
EXTT8=
EXTT9=
EXTT10=
PLAYORDER=
